<svg width="220" height="627" viewBox="0 0 220 627" fill="none" xmlns="http://www.w3.org/2000/svg">
<path d="M25.5664 339C26.397 339 27.0703 338.328 27.0703 337.5C27.0703 336.672 26.397 336 25.5664 336C24.7358 336 24.0625 336.672 24.0625 337.5C24.0625 338.328 24.7358 339 25.5664 339Z" fill="#999999"/>
<path d="M49.6289 339C50.4595 339 51.1328 338.328 51.1328 337.5C51.1328 336.672 50.4595 336 49.6289 336C48.7983 336 48.125 336.672 48.125 337.5C48.125 338.328 48.7983 339 49.6289 339Z" fill="#999999"/>
<path d="M73.6914 339C74.522 339 75.1953 338.328 75.1953 337.5C75.1953 336.672 74.522 336 73.6914 336C72.8608 336 72.1875 336.672 72.1875 337.5C72.1875 338.328 72.8608 339 73.6914 339Z" fill="#999999"/>
<path d="M97.7539 339C98.5845 339 99.2578 338.328 99.2578 337.5C99.2578 336.672 98.5845 336 97.7539 336C96.9233 336 96.25 336.672 96.25 337.5C96.25 338.328 96.9233 339 97.7539 339Z" fill="#999999"/>
<path d="M121.816 339C122.647 339 123.32 338.328 123.32 337.5C123.32 336.672 122.647 336 121.816 336C120.986 336 120.312 336.672 120.312 337.5C120.312 338.328 120.986 339 121.816 339Z" fill="#999999"/>
<path d="M145.879 339C146.709 339 147.383 338.328 147.383 337.5C147.383 336.672 146.709 336 145.879 336C145.048 336 144.375 336.672 144.375 337.5C144.375 338.328 145.048 339 145.879 339Z" fill="#999999"/>
<path d="M169.941 339C170.772 339 171.445 338.328 171.445 337.5C171.445 336.672 170.772 336 169.941 336C169.111 336 168.438 336.672 168.438 337.5C168.438 338.328 169.111 339 169.941 339Z" fill="#999999"/>
<path d="M194.004 339C194.834 339 195.508 338.328 195.508 337.5C195.508 336.672 194.834 336 194.004 336C193.173 336 192.5 336.672 192.5 337.5C192.5 338.328 193.173 339 194.004 339Z" fill="#999999"/>
<path d="M218.066 339C218.897 339 219.57 338.328 219.57 337.5C219.57 336.672 218.897 336 218.066 336C217.236 336 216.562 336.672 216.562 337.5C216.562 338.328 217.236 339 218.066 339Z" fill="#999999"/>
<path d="M1.50391 339C2.33449 339 3.00781 338.328 3.00781 337.5C3.00781 336.672 2.33449 336 1.50391 336C0.673322 336 0 336.672 0 337.5C0 338.328 0.673322 339 1.50391 339Z" fill="#999999"/>
<path d="M25.5664 363C26.397 363 27.0703 362.328 27.0703 361.5C27.0703 360.672 26.397 360 25.5664 360C24.7358 360 24.0625 360.672 24.0625 361.5C24.0625 362.328 24.7358 363 25.5664 363Z" fill="#999999"/>
<path d="M49.6289 363C50.4595 363 51.1328 362.328 51.1328 361.5C51.1328 360.672 50.4595 360 49.6289 360C48.7983 360 48.125 360.672 48.125 361.5C48.125 362.328 48.7983 363 49.6289 363Z" fill="#999999"/>
<path d="M73.6914 363C74.522 363 75.1953 362.328 75.1953 361.5C75.1953 360.672 74.522 360 73.6914 360C72.8608 360 72.1875 360.672 72.1875 361.5C72.1875 362.328 72.8608 363 73.6914 363Z" fill="#999999"/>
<path d="M97.7539 363C98.5845 363 99.2578 362.328 99.2578 361.5C99.2578 360.672 98.5845 360 97.7539 360C96.9233 360 96.25 360.672 96.25 361.5C96.25 362.328 96.9233 363 97.7539 363Z" fill="#999999"/>
<path d="M121.816 363C122.647 363 123.32 362.328 123.32 361.5C123.32 360.672 122.647 360 121.816 360C120.986 360 120.312 360.672 120.312 361.5C120.312 362.328 120.986 363 121.816 363Z" fill="#999999"/>
<path d="M145.879 363C146.709 363 147.383 362.328 147.383 361.5C147.383 360.672 146.709 360 145.879 360C145.048 360 144.375 360.672 144.375 361.5C144.375 362.328 145.048 363 145.879 363Z" fill="#999999"/>
<path d="M169.941 363C170.772 363 171.445 362.328 171.445 361.5C171.445 360.672 170.772 360 169.941 360C169.111 360 168.438 360.672 168.438 361.5C168.438 362.328 169.111 363 169.941 363Z" fill="#999999"/>
<path d="M194.004 363C194.834 363 195.508 362.328 195.508 361.5C195.508 360.672 194.834 360 194.004 360C193.173 360 192.5 360.672 192.5 361.5C192.5 362.328 193.173 363 194.004 363Z" fill="#999999"/>
<path d="M218.066 363C218.897 363 219.57 362.328 219.57 361.5C219.57 360.672 218.897 360 218.066 360C217.236 360 216.562 360.672 216.562 361.5C216.562 362.328 217.236 363 218.066 363Z" fill="#999999"/>
<path d="M1.50391 363C2.33449 363 3.00781 362.328 3.00781 361.5C3.00781 360.672 2.33449 360 1.50391 360C0.673322 360 0 360.672 0 361.5C0 362.328 0.673322 363 1.50391 363Z" fill="#999999"/>
<path d="M25.5664 387C26.397 387 27.0703 386.328 27.0703 385.5C27.0703 384.672 26.397 384 25.5664 384C24.7358 384 24.0625 384.672 24.0625 385.5C24.0625 386.328 24.7358 387 25.5664 387Z" fill="#999999"/>
<path d="M49.6289 387C50.4595 387 51.1328 386.328 51.1328 385.5C51.1328 384.672 50.4595 384 49.6289 384C48.7983 384 48.125 384.672 48.125 385.5C48.125 386.328 48.7983 387 49.6289 387Z" fill="#999999"/>
<path d="M73.6914 387C74.522 387 75.1953 386.328 75.1953 385.5C75.1953 384.672 74.522 384 73.6914 384C72.8608 384 72.1875 384.672 72.1875 385.5C72.1875 386.328 72.8608 387 73.6914 387Z" fill="#999999"/>
<path d="M97.7539 387C98.5845 387 99.2578 386.328 99.2578 385.5C99.2578 384.672 98.5845 384 97.7539 384C96.9233 384 96.25 384.672 96.25 385.5C96.25 386.328 96.9233 387 97.7539 387Z" fill="#999999"/>
<path d="M121.816 387C122.647 387 123.32 386.328 123.32 385.5C123.32 384.672 122.647 384 121.816 384C120.986 384 120.312 384.672 120.312 385.5C120.312 386.328 120.986 387 121.816 387Z" fill="#999999"/>
<path d="M145.879 387C146.709 387 147.383 386.328 147.383 385.5C147.383 384.672 146.709 384 145.879 384C145.048 384 144.375 384.672 144.375 385.5C144.375 386.328 145.048 387 145.879 387Z" fill="#999999"/>
<path d="M169.941 387C170.772 387 171.445 386.328 171.445 385.5C171.445 384.672 170.772 384 169.941 384C169.111 384 168.438 384.672 168.438 385.5C168.438 386.328 169.111 387 169.941 387Z" fill="#999999"/>
<path d="M194.004 387C194.834 387 195.508 386.328 195.508 385.5C195.508 384.672 194.834 384 194.004 384C193.173 384 192.5 384.672 192.5 385.5C192.5 386.328 193.173 387 194.004 387Z" fill="#999999"/>
<path d="M218.066 387C218.897 387 219.57 386.328 219.57 385.5C219.57 384.672 218.897 384 218.066 384C217.236 384 216.562 384.672 216.562 385.5C216.562 386.328 217.236 387 218.066 387Z" fill="#999999"/>
<path d="M1.50391 387C2.33449 387 3.00781 386.328 3.00781 385.5C3.00781 384.672 2.33449 384 1.50391 384C0.673322 384 0 384.672 0 385.5C0 386.328 0.673322 387 1.50391 387Z" fill="#999999"/>
<path d="M25.5664 411C26.397 411 27.0703 410.328 27.0703 409.5C27.0703 408.672 26.397 408 25.5664 408C24.7358 408 24.0625 408.672 24.0625 409.5C24.0625 410.328 24.7358 411 25.5664 411Z" fill="#999999"/>
<path d="M49.6289 411C50.4595 411 51.1328 410.328 51.1328 409.5C51.1328 408.672 50.4595 408 49.6289 408C48.7983 408 48.125 408.672 48.125 409.5C48.125 410.328 48.7983 411 49.6289 411Z" fill="#999999"/>
<path d="M73.6914 411C74.522 411 75.1953 410.328 75.1953 409.5C75.1953 408.672 74.522 408 73.6914 408C72.8608 408 72.1875 408.672 72.1875 409.5C72.1875 410.328 72.8608 411 73.6914 411Z" fill="#999999"/>
<path d="M97.7539 411C98.5845 411 99.2578 410.328 99.2578 409.5C99.2578 408.672 98.5845 408 97.7539 408C96.9233 408 96.25 408.672 96.25 409.5C96.25 410.328 96.9233 411 97.7539 411Z" fill="#999999"/>
<path d="M121.816 411C122.647 411 123.32 410.328 123.32 409.5C123.32 408.672 122.647 408 121.816 408C120.986 408 120.312 408.672 120.312 409.5C120.312 410.328 120.986 411 121.816 411Z" fill="#999999"/>
<path d="M145.879 411C146.709 411 147.383 410.328 147.383 409.5C147.383 408.672 146.709 408 145.879 408C145.048 408 144.375 408.672 144.375 409.5C144.375 410.328 145.048 411 145.879 411Z" fill="#999999"/>
<path d="M169.941 411C170.772 411 171.445 410.328 171.445 409.5C171.445 408.672 170.772 408 169.941 408C169.111 408 168.438 408.672 168.438 409.5C168.438 410.328 169.111 411 169.941 411Z" fill="#999999"/>
<path d="M194.004 411C194.834 411 195.508 410.328 195.508 409.5C195.508 408.672 194.834 408 194.004 408C193.173 408 192.5 408.672 192.5 409.5C192.5 410.328 193.173 411 194.004 411Z" fill="#999999"/>
<path d="M218.066 411C218.897 411 219.57 410.328 219.57 409.5C219.57 408.672 218.897 408 218.066 408C217.236 408 216.562 408.672 216.562 409.5C216.562 410.328 217.236 411 218.066 411Z" fill="#999999"/>
<path d="M1.50391 411C2.33449 411 3.00781 410.328 3.00781 409.5C3.00781 408.672 2.33449 408 1.50391 408C0.673322 408 0 408.672 0 409.5C0 410.328 0.673322 411 1.50391 411Z" fill="#999999"/>
<path d="M25.5664 435C26.397 435 27.0703 434.328 27.0703 433.5C27.0703 432.672 26.397 432 25.5664 432C24.7358 432 24.0625 432.672 24.0625 433.5C24.0625 434.328 24.7358 435 25.5664 435Z" fill="#999999"/>
<path d="M49.6289 435C50.4595 435 51.1328 434.328 51.1328 433.5C51.1328 432.672 50.4595 432 49.6289 432C48.7983 432 48.125 432.672 48.125 433.5C48.125 434.328 48.7983 435 49.6289 435Z" fill="#999999"/>
<path d="M73.6914 435C74.522 435 75.1953 434.328 75.1953 433.5C75.1953 432.672 74.522 432 73.6914 432C72.8608 432 72.1875 432.672 72.1875 433.5C72.1875 434.328 72.8608 435 73.6914 435Z" fill="#999999"/>
<path d="M97.7539 435C98.5845 435 99.2578 434.328 99.2578 433.5C99.2578 432.672 98.5845 432 97.7539 432C96.9233 432 96.25 432.672 96.25 433.5C96.25 434.328 96.9233 435 97.7539 435Z" fill="#999999"/>
<path d="M121.816 435C122.647 435 123.32 434.328 123.32 433.5C123.32 432.672 122.647 432 121.816 432C120.986 432 120.312 432.672 120.312 433.5C120.312 434.328 120.986 435 121.816 435Z" fill="#999999"/>
<path d="M145.879 435C146.709 435 147.383 434.328 147.383 433.5C147.383 432.672 146.709 432 145.879 432C145.048 432 144.375 432.672 144.375 433.5C144.375 434.328 145.048 435 145.879 435Z" fill="#999999"/>
<path d="M169.941 435C170.772 435 171.445 434.328 171.445 433.5C171.445 432.672 170.772 432 169.941 432C169.111 432 168.438 432.672 168.438 433.5C168.438 434.328 169.111 435 169.941 435Z" fill="#999999"/>
<path d="M194.004 435C194.834 435 195.508 434.328 195.508 433.5C195.508 432.672 194.834 432 194.004 432C193.173 432 192.5 432.672 192.5 433.5C192.5 434.328 193.173 435 194.004 435Z" fill="#999999"/>
<path d="M218.066 435C218.897 435 219.57 434.328 219.57 433.5C219.57 432.672 218.897 432 218.066 432C217.236 432 216.562 432.672 216.562 433.5C216.562 434.328 217.236 435 218.066 435Z" fill="#999999"/>
<path d="M1.50391 435C2.33449 435 3.00781 434.328 3.00781 433.5C3.00781 432.672 2.33449 432 1.50391 432C0.673322 432 0 432.672 0 433.5C0 434.328 0.673322 435 1.50391 435Z" fill="#999999"/>
<path d="M25.5664 459C26.397 459 27.0703 458.328 27.0703 457.5C27.0703 456.672 26.397 456 25.5664 456C24.7358 456 24.0625 456.672 24.0625 457.5C24.0625 458.328 24.7358 459 25.5664 459Z" fill="#999999"/>
<path d="M49.6289 459C50.4595 459 51.1328 458.328 51.1328 457.5C51.1328 456.672 50.4595 456 49.6289 456C48.7983 456 48.125 456.672 48.125 457.5C48.125 458.328 48.7983 459 49.6289 459Z" fill="#999999"/>
<path d="M73.6914 459C74.522 459 75.1953 458.328 75.1953 457.5C75.1953 456.672 74.522 456 73.6914 456C72.8608 456 72.1875 456.672 72.1875 457.5C72.1875 458.328 72.8608 459 73.6914 459Z" fill="#999999"/>
<path d="M97.7539 459C98.5845 459 99.2578 458.328 99.2578 457.5C99.2578 456.672 98.5845 456 97.7539 456C96.9233 456 96.25 456.672 96.25 457.5C96.25 458.328 96.9233 459 97.7539 459Z" fill="#999999"/>
<path d="M121.816 459C122.647 459 123.32 458.328 123.32 457.5C123.32 456.672 122.647 456 121.816 456C120.986 456 120.312 456.672 120.312 457.5C120.312 458.328 120.986 459 121.816 459Z" fill="#999999"/>
<path d="M145.879 459C146.709 459 147.383 458.328 147.383 457.5C147.383 456.672 146.709 456 145.879 456C145.048 456 144.375 456.672 144.375 457.5C144.375 458.328 145.048 459 145.879 459Z" fill="#999999"/>
<path d="M169.941 459C170.772 459 171.445 458.328 171.445 457.5C171.445 456.672 170.772 456 169.941 456C169.111 456 168.438 456.672 168.438 457.5C168.438 458.328 169.111 459 169.941 459Z" fill="#999999"/>
<path d="M194.004 459C194.834 459 195.508 458.328 195.508 457.5C195.508 456.672 194.834 456 194.004 456C193.173 456 192.5 456.672 192.5 457.5C192.5 458.328 193.173 459 194.004 459Z" fill="#999999"/>
<path d="M218.066 459C218.897 459 219.57 458.328 219.57 457.5C219.57 456.672 218.897 456 218.066 456C217.236 456 216.562 456.672 216.562 457.5C216.562 458.328 217.236 459 218.066 459Z" fill="#999999"/>
<path d="M1.50391 459C2.33449 459 3.00781 458.328 3.00781 457.5C3.00781 456.672 2.33449 456 1.50391 456C0.673322 456 0 456.672 0 457.5C0 458.328 0.673322 459 1.50391 459Z" fill="#999999"/>
<path d="M25.5664 483C26.397 483 27.0703 482.328 27.0703 481.5C27.0703 480.672 26.397 480 25.5664 480C24.7358 480 24.0625 480.672 24.0625 481.5C24.0625 482.328 24.7358 483 25.5664 483Z" fill="#999999"/>
<path d="M49.6289 483C50.4595 483 51.1328 482.328 51.1328 481.5C51.1328 480.672 50.4595 480 49.6289 480C48.7983 480 48.125 480.672 48.125 481.5C48.125 482.328 48.7983 483 49.6289 483Z" fill="#999999"/>
<path d="M73.6914 483C74.522 483 75.1953 482.328 75.1953 481.5C75.1953 480.672 74.522 480 73.6914 480C72.8608 480 72.1875 480.672 72.1875 481.5C72.1875 482.328 72.8608 483 73.6914 483Z" fill="#999999"/>
<path d="M97.7539 483C98.5845 483 99.2578 482.328 99.2578 481.5C99.2578 480.672 98.5845 480 97.7539 480C96.9233 480 96.25 480.672 96.25 481.5C96.25 482.328 96.9233 483 97.7539 483Z" fill="#999999"/>
<path d="M121.816 483C122.647 483 123.32 482.328 123.32 481.5C123.32 480.672 122.647 480 121.816 480C120.986 480 120.312 480.672 120.312 481.5C120.312 482.328 120.986 483 121.816 483Z" fill="#999999"/>
<path d="M145.879 483C146.709 483 147.383 482.328 147.383 481.5C147.383 480.672 146.709 480 145.879 480C145.048 480 144.375 480.672 144.375 481.5C144.375 482.328 145.048 483 145.879 483Z" fill="#999999"/>
<path d="M169.941 483C170.772 483 171.445 482.328 171.445 481.5C171.445 480.672 170.772 480 169.941 480C169.111 480 168.438 480.672 168.438 481.5C168.438 482.328 169.111 483 169.941 483Z" fill="#999999"/>
<path d="M194.004 483C194.834 483 195.508 482.328 195.508 481.5C195.508 480.672 194.834 480 194.004 480C193.173 480 192.5 480.672 192.5 481.5C192.5 482.328 193.173 483 194.004 483Z" fill="#999999"/>
<path d="M218.066 483C218.897 483 219.57 482.328 219.57 481.5C219.57 480.672 218.897 480 218.066 480C217.236 480 216.562 480.672 216.562 481.5C216.562 482.328 217.236 483 218.066 483Z" fill="#999999"/>
<path d="M1.50391 483C2.33449 483 3.00781 482.328 3.00781 481.5C3.00781 480.672 2.33449 480 1.50391 480C0.673322 480 0 480.672 0 481.5C0 482.328 0.673322 483 1.50391 483Z" fill="#999999"/>
<path d="M25.5664 507C26.397 507 27.0703 506.328 27.0703 505.5C27.0703 504.672 26.397 504 25.5664 504C24.7358 504 24.0625 504.672 24.0625 505.5C24.0625 506.328 24.7358 507 25.5664 507Z" fill="#999999"/>
<path d="M49.6289 507C50.4595 507 51.1328 506.328 51.1328 505.5C51.1328 504.672 50.4595 504 49.6289 504C48.7983 504 48.125 504.672 48.125 505.5C48.125 506.328 48.7983 507 49.6289 507Z" fill="#999999"/>
<path d="M73.6914 507C74.522 507 75.1953 506.328 75.1953 505.5C75.1953 504.672 74.522 504 73.6914 504C72.8608 504 72.1875 504.672 72.1875 505.5C72.1875 506.328 72.8608 507 73.6914 507Z" fill="#999999"/>
<path d="M97.7539 507C98.5845 507 99.2578 506.328 99.2578 505.5C99.2578 504.672 98.5845 504 97.7539 504C96.9233 504 96.25 504.672 96.25 505.5C96.25 506.328 96.9233 507 97.7539 507Z" fill="#999999"/>
<path d="M121.816 507C122.647 507 123.32 506.328 123.32 505.5C123.32 504.672 122.647 504 121.816 504C120.986 504 120.312 504.672 120.312 505.5C120.312 506.328 120.986 507 121.816 507Z" fill="#999999"/>
<path d="M145.879 507C146.709 507 147.383 506.328 147.383 505.5C147.383 504.672 146.709 504 145.879 504C145.048 504 144.375 504.672 144.375 505.5C144.375 506.328 145.048 507 145.879 507Z" fill="#999999"/>
<path d="M169.941 507C170.772 507 171.445 506.328 171.445 505.5C171.445 504.672 170.772 504 169.941 504C169.111 504 168.438 504.672 168.438 505.5C168.438 506.328 169.111 507 169.941 507Z" fill="#999999"/>
<path d="M194.004 507C194.834 507 195.508 506.328 195.508 505.5C195.508 504.672 194.834 504 194.004 504C193.173 504 192.5 504.672 192.5 505.5C192.5 506.328 193.173 507 194.004 507Z" fill="#999999"/>
<path d="M218.066 507C218.897 507 219.57 506.328 219.57 505.5C219.57 504.672 218.897 504 218.066 504C217.236 504 216.562 504.672 216.562 505.5C216.562 506.328 217.236 507 218.066 507Z" fill="#999999"/>
<path d="M1.50391 507C2.33449 507 3.00781 506.328 3.00781 505.5C3.00781 504.672 2.33449 504 1.50391 504C0.673322 504 0 504.672 0 505.5C0 506.328 0.673322 507 1.50391 507Z" fill="#999999"/>
<path d="M25.5664 531C26.397 531 27.0703 530.328 27.0703 529.5C27.0703 528.672 26.397 528 25.5664 528C24.7358 528 24.0625 528.672 24.0625 529.5C24.0625 530.328 24.7358 531 25.5664 531Z" fill="#999999"/>
<path d="M49.6289 531C50.4595 531 51.1328 530.328 51.1328 529.5C51.1328 528.672 50.4595 528 49.6289 528C48.7983 528 48.125 528.672 48.125 529.5C48.125 530.328 48.7983 531 49.6289 531Z" fill="#999999"/>
<path d="M73.6914 531C74.522 531 75.1953 530.328 75.1953 529.5C75.1953 528.672 74.522 528 73.6914 528C72.8608 528 72.1875 528.672 72.1875 529.5C72.1875 530.328 72.8608 531 73.6914 531Z" fill="#999999"/>
<path d="M97.7539 531C98.5845 531 99.2578 530.328 99.2578 529.5C99.2578 528.672 98.5845 528 97.7539 528C96.9233 528 96.25 528.672 96.25 529.5C96.25 530.328 96.9233 531 97.7539 531Z" fill="#999999"/>
<path d="M121.816 531C122.647 531 123.32 530.328 123.32 529.5C123.32 528.672 122.647 528 121.816 528C120.986 528 120.312 528.672 120.312 529.5C120.312 530.328 120.986 531 121.816 531Z" fill="#999999"/>
<path d="M145.879 531C146.709 531 147.383 530.328 147.383 529.5C147.383 528.672 146.709 528 145.879 528C145.048 528 144.375 528.672 144.375 529.5C144.375 530.328 145.048 531 145.879 531Z" fill="#999999"/>
<path d="M169.941 531C170.772 531 171.445 530.328 171.445 529.5C171.445 528.672 170.772 528 169.941 528C169.111 528 168.438 528.672 168.438 529.5C168.438 530.328 169.111 531 169.941 531Z" fill="#999999"/>
<path d="M194.004 531C194.834 531 195.508 530.328 195.508 529.5C195.508 528.672 194.834 528 194.004 528C193.173 528 192.5 528.672 192.5 529.5C192.5 530.328 193.173 531 194.004 531Z" fill="#999999"/>
<path d="M218.066 531C218.897 531 219.57 530.328 219.57 529.5C219.57 528.672 218.897 528 218.066 528C217.236 528 216.562 528.672 216.562 529.5C216.562 530.328 217.236 531 218.066 531Z" fill="#999999"/>
<path d="M1.50391 531C2.33449 531 3.00781 530.328 3.00781 529.5C3.00781 528.672 2.33449 528 1.50391 528C0.673322 528 0 528.672 0 529.5C0 530.328 0.673322 531 1.50391 531Z" fill="#999999"/>
<path d="M25.5664 555C26.397 555 27.0703 554.328 27.0703 553.5C27.0703 552.672 26.397 552 25.5664 552C24.7358 552 24.0625 552.672 24.0625 553.5C24.0625 554.328 24.7358 555 25.5664 555Z" fill="#999999"/>
<path d="M49.6289 555C50.4595 555 51.1328 554.328 51.1328 553.5C51.1328 552.672 50.4595 552 49.6289 552C48.7983 552 48.125 552.672 48.125 553.5C48.125 554.328 48.7983 555 49.6289 555Z" fill="#999999"/>
<path d="M73.6914 555C74.522 555 75.1953 554.328 75.1953 553.5C75.1953 552.672 74.522 552 73.6914 552C72.8608 552 72.1875 552.672 72.1875 553.5C72.1875 554.328 72.8608 555 73.6914 555Z" fill="#999999"/>
<path d="M97.7539 555C98.5845 555 99.2578 554.328 99.2578 553.5C99.2578 552.672 98.5845 552 97.7539 552C96.9233 552 96.25 552.672 96.25 553.5C96.25 554.328 96.9233 555 97.7539 555Z" fill="#999999"/>
<path d="M121.816 555C122.647 555 123.32 554.328 123.32 553.5C123.32 552.672 122.647 552 121.816 552C120.986 552 120.312 552.672 120.312 553.5C120.312 554.328 120.986 555 121.816 555Z" fill="#999999"/>
<path d="M145.879 555C146.709 555 147.383 554.328 147.383 553.5C147.383 552.672 146.709 552 145.879 552C145.048 552 144.375 552.672 144.375 553.5C144.375 554.328 145.048 555 145.879 555Z" fill="#999999"/>
<path d="M169.941 555C170.772 555 171.445 554.328 171.445 553.5C171.445 552.672 170.772 552 169.941 552C169.111 552 168.438 552.672 168.438 553.5C168.438 554.328 169.111 555 169.941 555Z" fill="#999999"/>
<path d="M194.004 555C194.834 555 195.508 554.328 195.508 553.5C195.508 552.672 194.834 552 194.004 552C193.173 552 192.5 552.672 192.5 553.5C192.5 554.328 193.173 555 194.004 555Z" fill="#999999"/>
<path d="M218.066 555C218.897 555 219.57 554.328 219.57 553.5C219.57 552.672 218.897 552 218.066 552C217.236 552 216.562 552.672 216.562 553.5C216.562 554.328 217.236 555 218.066 555Z" fill="#999999"/>
<path d="M1.50391 555C2.33449 555 3.00781 554.328 3.00781 553.5C3.00781 552.672 2.33449 552 1.50391 552C0.673322 552 0 552.672 0 553.5C0 554.328 0.673322 555 1.50391 555Z" fill="#999999"/>
<path d="M25.5664 579C26.397 579 27.0703 578.328 27.0703 577.5C27.0703 576.672 26.397 576 25.5664 576C24.7358 576 24.0625 576.672 24.0625 577.5C24.0625 578.328 24.7358 579 25.5664 579Z" fill="#999999"/>
<path d="M49.6289 579C50.4595 579 51.1328 578.328 51.1328 577.5C51.1328 576.672 50.4595 576 49.6289 576C48.7983 576 48.125 576.672 48.125 577.5C48.125 578.328 48.7983 579 49.6289 579Z" fill="#999999"/>
<path d="M73.6914 579C74.522 579 75.1953 578.328 75.1953 577.5C75.1953 576.672 74.522 576 73.6914 576C72.8608 576 72.1875 576.672 72.1875 577.5C72.1875 578.328 72.8608 579 73.6914 579Z" fill="#999999"/>
<path d="M97.7539 579C98.5845 579 99.2578 578.328 99.2578 577.5C99.2578 576.672 98.5845 576 97.7539 576C96.9233 576 96.25 576.672 96.25 577.5C96.25 578.328 96.9233 579 97.7539 579Z" fill="#999999"/>
<path d="M121.816 579C122.647 579 123.32 578.328 123.32 577.5C123.32 576.672 122.647 576 121.816 576C120.986 576 120.312 576.672 120.312 577.5C120.312 578.328 120.986 579 121.816 579Z" fill="#999999"/>
<path d="M145.879 579C146.709 579 147.383 578.328 147.383 577.5C147.383 576.672 146.709 576 145.879 576C145.048 576 144.375 576.672 144.375 577.5C144.375 578.328 145.048 579 145.879 579Z" fill="#999999"/>
<path d="M169.941 579C170.772 579 171.445 578.328 171.445 577.5C171.445 576.672 170.772 576 169.941 576C169.111 576 168.438 576.672 168.438 577.5C168.438 578.328 169.111 579 169.941 579Z" fill="#999999"/>
<path d="M194.004 579C194.834 579 195.508 578.328 195.508 577.5C195.508 576.672 194.834 576 194.004 576C193.173 576 192.5 576.672 192.5 577.5C192.5 578.328 193.173 579 194.004 579Z" fill="#999999"/>
<path d="M218.066 579C218.897 579 219.57 578.328 219.57 577.5C219.57 576.672 218.897 576 218.066 576C217.236 576 216.562 576.672 216.562 577.5C216.562 578.328 217.236 579 218.066 579Z" fill="#999999"/>
<path d="M1.50391 579C2.33449 579 3.00781 578.328 3.00781 577.5C3.00781 576.672 2.33449 576 1.50391 576C0.673322 576 0 576.672 0 577.5C0 578.328 0.673322 579 1.50391 579Z" fill="#999999"/>
<path d="M25.5664 603C26.397 603 27.0703 602.328 27.0703 601.5C27.0703 600.672 26.397 600 25.5664 600C24.7358 600 24.0625 600.672 24.0625 601.5C24.0625 602.328 24.7358 603 25.5664 603Z" fill="#999999"/>
<path d="M49.6289 603C50.4595 603 51.1328 602.328 51.1328 601.5C51.1328 600.672 50.4595 600 49.6289 600C48.7983 600 48.125 600.672 48.125 601.5C48.125 602.328 48.7983 603 49.6289 603Z" fill="#999999"/>
<path d="M73.6914 603C74.522 603 75.1953 602.328 75.1953 601.5C75.1953 600.672 74.522 600 73.6914 600C72.8608 600 72.1875 600.672 72.1875 601.5C72.1875 602.328 72.8608 603 73.6914 603Z" fill="#999999"/>
<path d="M97.7539 603C98.5845 603 99.2578 602.328 99.2578 601.5C99.2578 600.672 98.5845 600 97.7539 600C96.9233 600 96.25 600.672 96.25 601.5C96.25 602.328 96.9233 603 97.7539 603Z" fill="#999999"/>
<path d="M121.816 603C122.647 603 123.32 602.328 123.32 601.5C123.32 600.672 122.647 600 121.816 600C120.986 600 120.312 600.672 120.312 601.5C120.312 602.328 120.986 603 121.816 603Z" fill="#999999"/>
<path d="M145.879 603C146.709 603 147.383 602.328 147.383 601.5C147.383 600.672 146.709 600 145.879 600C145.048 600 144.375 600.672 144.375 601.5C144.375 602.328 145.048 603 145.879 603Z" fill="#999999"/>
<path d="M169.941 603C170.772 603 171.445 602.328 171.445 601.5C171.445 600.672 170.772 600 169.941 600C169.111 600 168.438 600.672 168.438 601.5C168.438 602.328 169.111 603 169.941 603Z" fill="#999999"/>
<path d="M194.004 603C194.834 603 195.508 602.328 195.508 601.5C195.508 600.672 194.834 600 194.004 600C193.173 600 192.5 600.672 192.5 601.5C192.5 602.328 193.173 603 194.004 603Z" fill="#999999"/>
<path d="M218.066 603C218.897 603 219.57 602.328 219.57 601.5C219.57 600.672 218.897 600 218.066 600C217.236 600 216.562 600.672 216.562 601.5C216.562 602.328 217.236 603 218.066 603Z" fill="#999999"/>
<path d="M1.50391 603C2.33449 603 3.00781 602.328 3.00781 601.5C3.00781 600.672 2.33449 600 1.50391 600C0.673322 600 0 600.672 0 601.5C0 602.328 0.673322 603 1.50391 603Z" fill="#999999"/>
<path d="M25.5664 627C26.397 627 27.0703 626.328 27.0703 625.5C27.0703 624.672 26.397 624 25.5664 624C24.7358 624 24.0625 624.672 24.0625 625.5C24.0625 626.328 24.7358 627 25.5664 627Z" fill="#999999"/>
<path d="M49.6289 627C50.4595 627 51.1328 626.328 51.1328 625.5C51.1328 624.672 50.4595 624 49.6289 624C48.7983 624 48.125 624.672 48.125 625.5C48.125 626.328 48.7983 627 49.6289 627Z" fill="#999999"/>
<path d="M73.6914 627C74.522 627 75.1953 626.328 75.1953 625.5C75.1953 624.672 74.522 624 73.6914 624C72.8608 624 72.1875 624.672 72.1875 625.5C72.1875 626.328 72.8608 627 73.6914 627Z" fill="#999999"/>
<path d="M97.7539 627C98.5845 627 99.2578 626.328 99.2578 625.5C99.2578 624.672 98.5845 624 97.7539 624C96.9233 624 96.25 624.672 96.25 625.5C96.25 626.328 96.9233 627 97.7539 627Z" fill="#999999"/>
<path d="M121.816 627C122.647 627 123.32 626.328 123.32 625.5C123.32 624.672 122.647 624 121.816 624C120.986 624 120.312 624.672 120.312 625.5C120.312 626.328 120.986 627 121.816 627Z" fill="#999999"/>
<path d="M145.879 627C146.709 627 147.383 626.328 147.383 625.5C147.383 624.672 146.709 624 145.879 624C145.048 624 144.375 624.672 144.375 625.5C144.375 626.328 145.048 627 145.879 627Z" fill="#999999"/>
<path d="M169.941 627C170.772 627 171.445 626.328 171.445 625.5C171.445 624.672 170.772 624 169.941 624C169.111 624 168.438 624.672 168.438 625.5C168.438 626.328 169.111 627 169.941 627Z" fill="#999999"/>
<path d="M194.004 627C194.834 627 195.508 626.328 195.508 625.5C195.508 624.672 194.834 624 194.004 624C193.173 624 192.5 624.672 192.5 625.5C192.5 626.328 193.173 627 194.004 627Z" fill="#999999"/>
<path d="M218.066 627C218.897 627 219.57 626.328 219.57 625.5C219.57 624.672 218.897 624 218.066 624C217.236 624 216.562 624.672 216.562 625.5C216.562 626.328 217.236 627 218.066 627Z" fill="#999999"/>
<path d="M1.50391 627C2.33449 627 3.00781 626.328 3.00781 625.5C3.00781 624.672 2.33449 624 1.50391 624C0.673322 624 0 624.672 0 625.5C0 626.328 0.673322 627 1.50391 627Z" fill="#999999"/>
<path d="M25.5664 27C26.397 27 27.0703 26.3284 27.0703 25.5C27.0703 24.6716 26.397 24 25.5664 24C24.7358 24 24.0625 24.6716 24.0625 25.5C24.0625 26.3284 24.7358 27 25.5664 27Z" fill="#999999"/>
<path d="M25.5664 3C26.397 3 27.0703 2.32843 27.0703 1.5C27.0703 0.671573 26.397 0 25.5664 0C24.7358 0 24.0625 0.671573 24.0625 1.5C24.0625 2.32843 24.7358 3 25.5664 3Z" fill="#999999"/>
<path d="M49.6289 27C50.4595 27 51.1328 26.3284 51.1328 25.5C51.1328 24.6716 50.4595 24 49.6289 24C48.7983 24 48.125 24.6716 48.125 25.5C48.125 26.3284 48.7983 27 49.6289 27Z" fill="#999999"/>
<path d="M49.6289 3C50.4595 3 51.1328 2.32843 51.1328 1.5C51.1328 0.671573 50.4595 0 49.6289 0C48.7983 0 48.125 0.671573 48.125 1.5C48.125 2.32843 48.7983 3 49.6289 3Z" fill="#999999"/>
<path d="M73.6914 27C74.522 27 75.1953 26.3284 75.1953 25.5C75.1953 24.6716 74.522 24 73.6914 24C72.8608 24 72.1875 24.6716 72.1875 25.5C72.1875 26.3284 72.8608 27 73.6914 27Z" fill="#999999"/>
<path d="M73.6914 3C74.522 3 75.1953 2.32843 75.1953 1.5C75.1953 0.671573 74.522 0 73.6914 0C72.8608 0 72.1875 0.671573 72.1875 1.5C72.1875 2.32843 72.8608 3 73.6914 3Z" fill="#999999"/>
<path d="M97.7539 27C98.5845 27 99.2578 26.3284 99.2578 25.5C99.2578 24.6716 98.5845 24 97.7539 24C96.9233 24 96.25 24.6716 96.25 25.5C96.25 26.3284 96.9233 27 97.7539 27Z" fill="#999999"/>
<path d="M97.7539 3C98.5845 3 99.2578 2.32843 99.2578 1.5C99.2578 0.671573 98.5845 0 97.7539 0C96.9233 0 96.25 0.671573 96.25 1.5C96.25 2.32843 96.9233 3 97.7539 3Z" fill="#999999"/>
<path d="M121.816 27C122.647 27 123.32 26.3284 123.32 25.5C123.32 24.6716 122.647 24 121.816 24C120.986 24 120.312 24.6716 120.312 25.5C120.312 26.3284 120.986 27 121.816 27Z" fill="#999999"/>
<path d="M121.816 3C122.647 3 123.32 2.32843 123.32 1.5C123.32 0.671573 122.647 0 121.816 0C120.986 0 120.312 0.671573 120.312 1.5C120.312 2.32843 120.986 3 121.816 3Z" fill="#999999"/>
<path d="M145.879 27C146.709 27 147.383 26.3284 147.383 25.5C147.383 24.6716 146.709 24 145.879 24C145.048 24 144.375 24.6716 144.375 25.5C144.375 26.3284 145.048 27 145.879 27Z" fill="#999999"/>
<path d="M145.879 3C146.709 3 147.383 2.32843 147.383 1.5C147.383 0.671573 146.709 0 145.879 0C145.048 0 144.375 0.671573 144.375 1.5C144.375 2.32843 145.048 3 145.879 3Z" fill="#999999"/>
<path d="M169.941 27C170.772 27 171.445 26.3284 171.445 25.5C171.445 24.6716 170.772 24 169.941 24C169.111 24 168.438 24.6716 168.438 25.5C168.438 26.3284 169.111 27 169.941 27Z" fill="#999999"/>
<path d="M169.941 3C170.772 3 171.445 2.32843 171.445 1.5C171.445 0.671573 170.772 0 169.941 0C169.111 0 168.438 0.671573 168.438 1.5C168.438 2.32843 169.111 3 169.941 3Z" fill="#999999"/>
<path d="M194.004 27C194.834 27 195.508 26.3284 195.508 25.5C195.508 24.6716 194.834 24 194.004 24C193.173 24 192.5 24.6716 192.5 25.5C192.5 26.3284 193.173 27 194.004 27Z" fill="#999999"/>
<path d="M194.004 3C194.834 3 195.508 2.32843 195.508 1.5C195.508 0.671573 194.834 0 194.004 0C193.173 0 192.5 0.671573 192.5 1.5C192.5 2.32843 193.173 3 194.004 3Z" fill="#999999"/>
<path d="M218.066 27C218.897 27 219.57 26.3284 219.57 25.5C219.57 24.6716 218.897 24 218.066 24C217.236 24 216.562 24.6716 216.562 25.5C216.562 26.3284 217.236 27 218.066 27Z" fill="#999999"/>
<path d="M1.50391 27C2.33449 27 3.00781 26.3284 3.00781 25.5C3.00781 24.6716 2.33449 24 1.50391 24C0.673322 24 0 24.6716 0 25.5C0 26.3284 0.673322 27 1.50391 27Z" fill="#999999"/>
<path d="M218.066 3C218.897 3 219.57 2.32843 219.57 1.5C219.57 0.671573 218.897 0 218.066 0C217.236 0 216.562 0.671573 216.562 1.5C216.562 2.32843 217.236 3 218.066 3Z" fill="#999999"/>
<path d="M1.50391 3C2.33449 3 3.00781 2.32843 3.00781 1.5C3.00781 0.671573 2.33449 0 1.50391 0C0.673322 0 0 0.671573 0 1.5C0 2.32843 0.673322 3 1.50391 3Z" fill="#999999"/>
<path d="M25.5664 51C26.397 51 27.0703 50.3284 27.0703 49.5C27.0703 48.6716 26.397 48 25.5664 48C24.7358 48 24.0625 48.6716 24.0625 49.5C24.0625 50.3284 24.7358 51 25.5664 51Z" fill="#999999"/>
<path d="M49.6289 51C50.4595 51 51.1328 50.3284 51.1328 49.5C51.1328 48.6716 50.4595 48 49.6289 48C48.7983 48 48.125 48.6716 48.125 49.5C48.125 50.3284 48.7983 51 49.6289 51Z" fill="#999999"/>
<path d="M73.6914 51C74.522 51 75.1953 50.3284 75.1953 49.5C75.1953 48.6716 74.522 48 73.6914 48C72.8608 48 72.1875 48.6716 72.1875 49.5C72.1875 50.3284 72.8608 51 73.6914 51Z" fill="#999999"/>
<path d="M97.7539 51C98.5845 51 99.2578 50.3284 99.2578 49.5C99.2578 48.6716 98.5845 48 97.7539 48C96.9233 48 96.25 48.6716 96.25 49.5C96.25 50.3284 96.9233 51 97.7539 51Z" fill="#999999"/>
<path d="M121.816 51C122.647 51 123.32 50.3284 123.32 49.5C123.32 48.6716 122.647 48 121.816 48C120.986 48 120.312 48.6716 120.312 49.5C120.312 50.3284 120.986 51 121.816 51Z" fill="#999999"/>
<path d="M145.879 51C146.709 51 147.383 50.3284 147.383 49.5C147.383 48.6716 146.709 48 145.879 48C145.048 48 144.375 48.6716 144.375 49.5C144.375 50.3284 145.048 51 145.879 51Z" fill="#999999"/>
<path d="M169.941 51C170.772 51 171.445 50.3284 171.445 49.5C171.445 48.6716 170.772 48 169.941 48C169.111 48 168.438 48.6716 168.438 49.5C168.438 50.3284 169.111 51 169.941 51Z" fill="#999999"/>
<path d="M194.004 51C194.834 51 195.508 50.3284 195.508 49.5C195.508 48.6716 194.834 48 194.004 48C193.173 48 192.5 48.6716 192.5 49.5C192.5 50.3284 193.173 51 194.004 51Z" fill="#999999"/>
<path d="M218.066 51C218.897 51 219.57 50.3284 219.57 49.5C219.57 48.6716 218.897 48 218.066 48C217.236 48 216.562 48.6716 216.562 49.5C216.562 50.3284 217.236 51 218.066 51Z" fill="#999999"/>
<path d="M1.50391 51C2.33449 51 3.00781 50.3284 3.00781 49.5C3.00781 48.6716 2.33449 48 1.50391 48C0.673322 48 0 48.6716 0 49.5C0 50.3284 0.673322 51 1.50391 51Z" fill="#999999"/>
<path d="M25.5664 75C26.397 75 27.0703 74.3284 27.0703 73.5C27.0703 72.6716 26.397 72 25.5664 72C24.7358 72 24.0625 72.6716 24.0625 73.5C24.0625 74.3284 24.7358 75 25.5664 75Z" fill="#999999"/>
<path d="M49.6289 75C50.4595 75 51.1328 74.3284 51.1328 73.5C51.1328 72.6716 50.4595 72 49.6289 72C48.7983 72 48.125 72.6716 48.125 73.5C48.125 74.3284 48.7983 75 49.6289 75Z" fill="#999999"/>
<path d="M73.6914 75C74.522 75 75.1953 74.3284 75.1953 73.5C75.1953 72.6716 74.522 72 73.6914 72C72.8608 72 72.1875 72.6716 72.1875 73.5C72.1875 74.3284 72.8608 75 73.6914 75Z" fill="#999999"/>
<path d="M97.7539 75C98.5845 75 99.2578 74.3284 99.2578 73.5C99.2578 72.6716 98.5845 72 97.7539 72C96.9233 72 96.25 72.6716 96.25 73.5C96.25 74.3284 96.9233 75 97.7539 75Z" fill="#999999"/>
<path d="M121.816 75C122.647 75 123.32 74.3284 123.32 73.5C123.32 72.6716 122.647 72 121.816 72C120.986 72 120.312 72.6716 120.312 73.5C120.312 74.3284 120.986 75 121.816 75Z" fill="#999999"/>
<path d="M145.879 75C146.709 75 147.383 74.3284 147.383 73.5C147.383 72.6716 146.709 72 145.879 72C145.048 72 144.375 72.6716 144.375 73.5C144.375 74.3284 145.048 75 145.879 75Z" fill="#999999"/>
<path d="M169.941 75C170.772 75 171.445 74.3284 171.445 73.5C171.445 72.6716 170.772 72 169.941 72C169.111 72 168.438 72.6716 168.438 73.5C168.438 74.3284 169.111 75 169.941 75Z" fill="#999999"/>
<path d="M194.004 75C194.834 75 195.508 74.3284 195.508 73.5C195.508 72.6716 194.834 72 194.004 72C193.173 72 192.5 72.6716 192.5 73.5C192.5 74.3284 193.173 75 194.004 75Z" fill="#999999"/>
<path d="M218.066 75C218.897 75 219.57 74.3284 219.57 73.5C219.57 72.6716 218.897 72 218.066 72C217.236 72 216.562 72.6716 216.562 73.5C216.562 74.3284 217.236 75 218.066 75Z" fill="#999999"/>
<path d="M1.50391 75C2.33449 75 3.00781 74.3284 3.00781 73.5C3.00781 72.6716 2.33449 72 1.50391 72C0.673322 72 0 72.6716 0 73.5C0 74.3284 0.673322 75 1.50391 75Z" fill="#999999"/>
<path d="M25.5664 99C26.397 99 27.0703 98.3284 27.0703 97.5C27.0703 96.6716 26.397 96 25.5664 96C24.7358 96 24.0625 96.6716 24.0625 97.5C24.0625 98.3284 24.7358 99 25.5664 99Z" fill="#999999"/>
<path d="M49.6289 99C50.4595 99 51.1328 98.3284 51.1328 97.5C51.1328 96.6716 50.4595 96 49.6289 96C48.7983 96 48.125 96.6716 48.125 97.5C48.125 98.3284 48.7983 99 49.6289 99Z" fill="#999999"/>
<path d="M73.6914 99C74.522 99 75.1953 98.3284 75.1953 97.5C75.1953 96.6716 74.522 96 73.6914 96C72.8608 96 72.1875 96.6716 72.1875 97.5C72.1875 98.3284 72.8608 99 73.6914 99Z" fill="#999999"/>
<path d="M97.7539 99C98.5845 99 99.2578 98.3284 99.2578 97.5C99.2578 96.6716 98.5845 96 97.7539 96C96.9233 96 96.25 96.6716 96.25 97.5C96.25 98.3284 96.9233 99 97.7539 99Z" fill="#999999"/>
<path d="M121.816 99C122.647 99 123.32 98.3284 123.32 97.5C123.32 96.6716 122.647 96 121.816 96C120.986 96 120.312 96.6716 120.312 97.5C120.312 98.3284 120.986 99 121.816 99Z" fill="#999999"/>
<path d="M145.879 99C146.709 99 147.383 98.3284 147.383 97.5C147.383 96.6716 146.709 96 145.879 96C145.048 96 144.375 96.6716 144.375 97.5C144.375 98.3284 145.048 99 145.879 99Z" fill="#999999"/>
<path d="M169.941 99C170.772 99 171.445 98.3284 171.445 97.5C171.445 96.6716 170.772 96 169.941 96C169.111 96 168.438 96.6716 168.438 97.5C168.438 98.3284 169.111 99 169.941 99Z" fill="#999999"/>
<path d="M194.004 99C194.834 99 195.508 98.3284 195.508 97.5C195.508 96.6716 194.834 96 194.004 96C193.173 96 192.5 96.6716 192.5 97.5C192.5 98.3284 193.173 99 194.004 99Z" fill="#999999"/>
<path d="M218.066 99C218.897 99 219.57 98.3284 219.57 97.5C219.57 96.6716 218.897 96 218.066 96C217.236 96 216.562 96.6716 216.562 97.5C216.562 98.3284 217.236 99 218.066 99Z" fill="#999999"/>
<path d="M1.50391 99C2.33449 99 3.00781 98.3284 3.00781 97.5C3.00781 96.6716 2.33449 96 1.50391 96C0.673322 96 0 96.6716 0 97.5C0 98.3284 0.673322 99 1.50391 99Z" fill="#999999"/>
<path d="M25.5664 123C26.397 123 27.0703 122.328 27.0703 121.5C27.0703 120.672 26.397 120 25.5664 120C24.7358 120 24.0625 120.672 24.0625 121.5C24.0625 122.328 24.7358 123 25.5664 123Z" fill="#999999"/>
<path d="M49.6289 123C50.4595 123 51.1328 122.328 51.1328 121.5C51.1328 120.672 50.4595 120 49.6289 120C48.7983 120 48.125 120.672 48.125 121.5C48.125 122.328 48.7983 123 49.6289 123Z" fill="#999999"/>
<path d="M73.6914 123C74.522 123 75.1953 122.328 75.1953 121.5C75.1953 120.672 74.522 120 73.6914 120C72.8608 120 72.1875 120.672 72.1875 121.5C72.1875 122.328 72.8608 123 73.6914 123Z" fill="#999999"/>
<path d="M97.7539 123C98.5845 123 99.2578 122.328 99.2578 121.5C99.2578 120.672 98.5845 120 97.7539 120C96.9233 120 96.25 120.672 96.25 121.5C96.25 122.328 96.9233 123 97.7539 123Z" fill="#999999"/>
<path d="M121.816 123C122.647 123 123.32 122.328 123.32 121.5C123.32 120.672 122.647 120 121.816 120C120.986 120 120.312 120.672 120.312 121.5C120.312 122.328 120.986 123 121.816 123Z" fill="#999999"/>
<path d="M145.879 123C146.709 123 147.383 122.328 147.383 121.5C147.383 120.672 146.709 120 145.879 120C145.048 120 144.375 120.672 144.375 121.5C144.375 122.328 145.048 123 145.879 123Z" fill="#999999"/>
<path d="M169.941 123C170.772 123 171.445 122.328 171.445 121.5C171.445 120.672 170.772 120 169.941 120C169.111 120 168.438 120.672 168.438 121.5C168.438 122.328 169.111 123 169.941 123Z" fill="#999999"/>
<path d="M194.004 123C194.834 123 195.508 122.328 195.508 121.5C195.508 120.672 194.834 120 194.004 120C193.173 120 192.5 120.672 192.5 121.5C192.5 122.328 193.173 123 194.004 123Z" fill="#999999"/>
<path d="M218.066 123C218.897 123 219.57 122.328 219.57 121.5C219.57 120.672 218.897 120 218.066 120C217.236 120 216.562 120.672 216.562 121.5C216.562 122.328 217.236 123 218.066 123Z" fill="#999999"/>
<path d="M1.50391 123C2.33449 123 3.00781 122.328 3.00781 121.5C3.00781 120.672 2.33449 120 1.50391 120C0.673322 120 0 120.672 0 121.5C0 122.328 0.673322 123 1.50391 123Z" fill="#999999"/>
<path d="M25.5664 147C26.397 147 27.0703 146.328 27.0703 145.5C27.0703 144.672 26.397 144 25.5664 144C24.7358 144 24.0625 144.672 24.0625 145.5C24.0625 146.328 24.7358 147 25.5664 147Z" fill="#999999"/>
<path d="M49.6289 147C50.4595 147 51.1328 146.328 51.1328 145.5C51.1328 144.672 50.4595 144 49.6289 144C48.7983 144 48.125 144.672 48.125 145.5C48.125 146.328 48.7983 147 49.6289 147Z" fill="#999999"/>
<path d="M73.6914 147C74.522 147 75.1953 146.328 75.1953 145.5C75.1953 144.672 74.522 144 73.6914 144C72.8608 144 72.1875 144.672 72.1875 145.5C72.1875 146.328 72.8608 147 73.6914 147Z" fill="#999999"/>
<path d="M97.7539 147C98.5845 147 99.2578 146.328 99.2578 145.5C99.2578 144.672 98.5845 144 97.7539 144C96.9233 144 96.25 144.672 96.25 145.5C96.25 146.328 96.9233 147 97.7539 147Z" fill="#999999"/>
<path d="M121.816 147C122.647 147 123.32 146.328 123.32 145.5C123.32 144.672 122.647 144 121.816 144C120.986 144 120.312 144.672 120.312 145.5C120.312 146.328 120.986 147 121.816 147Z" fill="#999999"/>
<path d="M145.879 147C146.709 147 147.383 146.328 147.383 145.5C147.383 144.672 146.709 144 145.879 144C145.048 144 144.375 144.672 144.375 145.5C144.375 146.328 145.048 147 145.879 147Z" fill="#999999"/>
<path d="M169.941 147C170.772 147 171.445 146.328 171.445 145.5C171.445 144.672 170.772 144 169.941 144C169.111 144 168.438 144.672 168.438 145.5C168.438 146.328 169.111 147 169.941 147Z" fill="#999999"/>
<path d="M194.004 147C194.834 147 195.508 146.328 195.508 145.5C195.508 144.672 194.834 144 194.004 144C193.173 144 192.5 144.672 192.5 145.5C192.5 146.328 193.173 147 194.004 147Z" fill="#999999"/>
<path d="M218.066 147C218.897 147 219.57 146.328 219.57 145.5C219.57 144.672 218.897 144 218.066 144C217.236 144 216.562 144.672 216.562 145.5C216.562 146.328 217.236 147 218.066 147Z" fill="#999999"/>
<path d="M1.50391 147C2.33449 147 3.00781 146.328 3.00781 145.5C3.00781 144.672 2.33449 144 1.50391 144C0.673322 144 0 144.672 0 145.5C0 146.328 0.673322 147 1.50391 147Z" fill="#999999"/>
<path d="M25.5664 171C26.397 171 27.0703 170.328 27.0703 169.5C27.0703 168.672 26.397 168 25.5664 168C24.7358 168 24.0625 168.672 24.0625 169.5C24.0625 170.328 24.7358 171 25.5664 171Z" fill="#999999"/>
<path d="M49.6289 171C50.4595 171 51.1328 170.328 51.1328 169.5C51.1328 168.672 50.4595 168 49.6289 168C48.7983 168 48.125 168.672 48.125 169.5C48.125 170.328 48.7983 171 49.6289 171Z" fill="#999999"/>
<path d="M73.6914 171C74.522 171 75.1953 170.328 75.1953 169.5C75.1953 168.672 74.522 168 73.6914 168C72.8608 168 72.1875 168.672 72.1875 169.5C72.1875 170.328 72.8608 171 73.6914 171Z" fill="#999999"/>
<path d="M97.7539 171C98.5845 171 99.2578 170.328 99.2578 169.5C99.2578 168.672 98.5845 168 97.7539 168C96.9233 168 96.25 168.672 96.25 169.5C96.25 170.328 96.9233 171 97.7539 171Z" fill="#999999"/>
<path d="M121.816 171C122.647 171 123.32 170.328 123.32 169.5C123.32 168.672 122.647 168 121.816 168C120.986 168 120.312 168.672 120.312 169.5C120.312 170.328 120.986 171 121.816 171Z" fill="#999999"/>
<path d="M145.879 171C146.709 171 147.383 170.328 147.383 169.5C147.383 168.672 146.709 168 145.879 168C145.048 168 144.375 168.672 144.375 169.5C144.375 170.328 145.048 171 145.879 171Z" fill="#999999"/>
<path d="M169.941 171C170.772 171 171.445 170.328 171.445 169.5C171.445 168.672 170.772 168 169.941 168C169.111 168 168.438 168.672 168.438 169.5C168.438 170.328 169.111 171 169.941 171Z" fill="#999999"/>
<path d="M194.004 171C194.834 171 195.508 170.328 195.508 169.5C195.508 168.672 194.834 168 194.004 168C193.173 168 192.5 168.672 192.5 169.5C192.5 170.328 193.173 171 194.004 171Z" fill="#999999"/>
<path d="M218.066 171C218.897 171 219.57 170.328 219.57 169.5C219.57 168.672 218.897 168 218.066 168C217.236 168 216.562 168.672 216.562 169.5C216.562 170.328 217.236 171 218.066 171Z" fill="#999999"/>
<path d="M1.50391 171C2.33449 171 3.00781 170.328 3.00781 169.5C3.00781 168.672 2.33449 168 1.50391 168C0.673322 168 0 168.672 0 169.5C0 170.328 0.673322 171 1.50391 171Z" fill="#999999"/>
<path d="M25.5664 195C26.397 195 27.0703 194.328 27.0703 193.5C27.0703 192.672 26.397 192 25.5664 192C24.7358 192 24.0625 192.672 24.0625 193.5C24.0625 194.328 24.7358 195 25.5664 195Z" fill="#999999"/>
<path d="M49.6289 195C50.4595 195 51.1328 194.328 51.1328 193.5C51.1328 192.672 50.4595 192 49.6289 192C48.7983 192 48.125 192.672 48.125 193.5C48.125 194.328 48.7983 195 49.6289 195Z" fill="#999999"/>
<path d="M73.6914 195C74.522 195 75.1953 194.328 75.1953 193.5C75.1953 192.672 74.522 192 73.6914 192C72.8608 192 72.1875 192.672 72.1875 193.5C72.1875 194.328 72.8608 195 73.6914 195Z" fill="#999999"/>
<path d="M97.7539 195C98.5845 195 99.2578 194.328 99.2578 193.5C99.2578 192.672 98.5845 192 97.7539 192C96.9233 192 96.25 192.672 96.25 193.5C96.25 194.328 96.9233 195 97.7539 195Z" fill="#999999"/>
<path d="M121.816 195C122.647 195 123.32 194.328 123.32 193.5C123.32 192.672 122.647 192 121.816 192C120.986 192 120.312 192.672 120.312 193.5C120.312 194.328 120.986 195 121.816 195Z" fill="#999999"/>
<path d="M145.879 195C146.709 195 147.383 194.328 147.383 193.5C147.383 192.672 146.709 192 145.879 192C145.048 192 144.375 192.672 144.375 193.5C144.375 194.328 145.048 195 145.879 195Z" fill="#999999"/>
<path d="M169.941 195C170.772 195 171.445 194.328 171.445 193.5C171.445 192.672 170.772 192 169.941 192C169.111 192 168.438 192.672 168.438 193.5C168.438 194.328 169.111 195 169.941 195Z" fill="#999999"/>
<path d="M194.004 195C194.834 195 195.508 194.328 195.508 193.5C195.508 192.672 194.834 192 194.004 192C193.173 192 192.5 192.672 192.5 193.5C192.5 194.328 193.173 195 194.004 195Z" fill="#999999"/>
<path d="M218.066 195C218.897 195 219.57 194.328 219.57 193.5C219.57 192.672 218.897 192 218.066 192C217.236 192 216.562 192.672 216.562 193.5C216.562 194.328 217.236 195 218.066 195Z" fill="#999999"/>
<path d="M1.50391 195C2.33449 195 3.00781 194.328 3.00781 193.5C3.00781 192.672 2.33449 192 1.50391 192C0.673322 192 0 192.672 0 193.5C0 194.328 0.673322 195 1.50391 195Z" fill="#999999"/>
<path d="M25.5664 219C26.397 219 27.0703 218.328 27.0703 217.5C27.0703 216.672 26.397 216 25.5664 216C24.7358 216 24.0625 216.672 24.0625 217.5C24.0625 218.328 24.7358 219 25.5664 219Z" fill="#999999"/>
<path d="M49.6289 219C50.4595 219 51.1328 218.328 51.1328 217.5C51.1328 216.672 50.4595 216 49.6289 216C48.7983 216 48.125 216.672 48.125 217.5C48.125 218.328 48.7983 219 49.6289 219Z" fill="#999999"/>
<path d="M73.6914 219C74.522 219 75.1953 218.328 75.1953 217.5C75.1953 216.672 74.522 216 73.6914 216C72.8608 216 72.1875 216.672 72.1875 217.5C72.1875 218.328 72.8608 219 73.6914 219Z" fill="#999999"/>
<path d="M97.7539 219C98.5845 219 99.2578 218.328 99.2578 217.5C99.2578 216.672 98.5845 216 97.7539 216C96.9233 216 96.25 216.672 96.25 217.5C96.25 218.328 96.9233 219 97.7539 219Z" fill="#999999"/>
<path d="M121.816 219C122.647 219 123.32 218.328 123.32 217.5C123.32 216.672 122.647 216 121.816 216C120.986 216 120.312 216.672 120.312 217.5C120.312 218.328 120.986 219 121.816 219Z" fill="#999999"/>
<path d="M145.879 219C146.709 219 147.383 218.328 147.383 217.5C147.383 216.672 146.709 216 145.879 216C145.048 216 144.375 216.672 144.375 217.5C144.375 218.328 145.048 219 145.879 219Z" fill="#999999"/>
<path d="M169.941 219C170.772 219 171.445 218.328 171.445 217.5C171.445 216.672 170.772 216 169.941 216C169.111 216 168.438 216.672 168.438 217.5C168.438 218.328 169.111 219 169.941 219Z" fill="#999999"/>
<path d="M194.004 219C194.834 219 195.508 218.328 195.508 217.5C195.508 216.672 194.834 216 194.004 216C193.173 216 192.5 216.672 192.5 217.5C192.5 218.328 193.173 219 194.004 219Z" fill="#999999"/>
<path d="M218.066 219C218.897 219 219.57 218.328 219.57 217.5C219.57 216.672 218.897 216 218.066 216C217.236 216 216.562 216.672 216.562 217.5C216.562 218.328 217.236 219 218.066 219Z" fill="#999999"/>
<path d="M1.50391 219C2.33449 219 3.00781 218.328 3.00781 217.5C3.00781 216.672 2.33449 216 1.50391 216C0.673322 216 0 216.672 0 217.5C0 218.328 0.673322 219 1.50391 219Z" fill="#999999"/>
<path d="M25.5664 243C26.397 243 27.0703 242.328 27.0703 241.5C27.0703 240.672 26.397 240 25.5664 240C24.7358 240 24.0625 240.672 24.0625 241.5C24.0625 242.328 24.7358 243 25.5664 243Z" fill="#999999"/>
<path d="M49.6289 243C50.4595 243 51.1328 242.328 51.1328 241.5C51.1328 240.672 50.4595 240 49.6289 240C48.7983 240 48.125 240.672 48.125 241.5C48.125 242.328 48.7983 243 49.6289 243Z" fill="#999999"/>
<path d="M73.6914 243C74.522 243 75.1953 242.328 75.1953 241.5C75.1953 240.672 74.522 240 73.6914 240C72.8608 240 72.1875 240.672 72.1875 241.5C72.1875 242.328 72.8608 243 73.6914 243Z" fill="#999999"/>
<path d="M97.7539 243C98.5845 243 99.2578 242.328 99.2578 241.5C99.2578 240.672 98.5845 240 97.7539 240C96.9233 240 96.25 240.672 96.25 241.5C96.25 242.328 96.9233 243 97.7539 243Z" fill="#999999"/>
<path d="M121.816 243C122.647 243 123.32 242.328 123.32 241.5C123.32 240.672 122.647 240 121.816 240C120.986 240 120.312 240.672 120.312 241.5C120.312 242.328 120.986 243 121.816 243Z" fill="#999999"/>
<path d="M145.879 243C146.709 243 147.383 242.328 147.383 241.5C147.383 240.672 146.709 240 145.879 240C145.048 240 144.375 240.672 144.375 241.5C144.375 242.328 145.048 243 145.879 243Z" fill="#999999"/>
<path d="M169.941 243C170.772 243 171.445 242.328 171.445 241.5C171.445 240.672 170.772 240 169.941 240C169.111 240 168.438 240.672 168.438 241.5C168.438 242.328 169.111 243 169.941 243Z" fill="#999999"/>
<path d="M194.004 243C194.834 243 195.508 242.328 195.508 241.5C195.508 240.672 194.834 240 194.004 240C193.173 240 192.5 240.672 192.5 241.5C192.5 242.328 193.173 243 194.004 243Z" fill="#999999"/>
<path d="M218.066 243C218.897 243 219.57 242.328 219.57 241.5C219.57 240.672 218.897 240 218.066 240C217.236 240 216.562 240.672 216.562 241.5C216.562 242.328 217.236 243 218.066 243Z" fill="#999999"/>
<path d="M1.50391 243C2.33449 243 3.00781 242.328 3.00781 241.5C3.00781 240.672 2.33449 240 1.50391 240C0.673322 240 0 240.672 0 241.5C0 242.328 0.673322 243 1.50391 243Z" fill="#999999"/>
<path d="M25.5664 267C26.397 267 27.0703 266.328 27.0703 265.5C27.0703 264.672 26.397 264 25.5664 264C24.7358 264 24.0625 264.672 24.0625 265.5C24.0625 266.328 24.7358 267 25.5664 267Z" fill="#999999"/>
<path d="M49.6289 267C50.4595 267 51.1328 266.328 51.1328 265.5C51.1328 264.672 50.4595 264 49.6289 264C48.7983 264 48.125 264.672 48.125 265.5C48.125 266.328 48.7983 267 49.6289 267Z" fill="#999999"/>
<path d="M73.6914 267C74.522 267 75.1953 266.328 75.1953 265.5C75.1953 264.672 74.522 264 73.6914 264C72.8608 264 72.1875 264.672 72.1875 265.5C72.1875 266.328 72.8608 267 73.6914 267Z" fill="#999999"/>
<path d="M97.7539 267C98.5845 267 99.2578 266.328 99.2578 265.5C99.2578 264.672 98.5845 264 97.7539 264C96.9233 264 96.25 264.672 96.25 265.5C96.25 266.328 96.9233 267 97.7539 267Z" fill="#999999"/>
<path d="M121.816 267C122.647 267 123.32 266.328 123.32 265.5C123.32 264.672 122.647 264 121.816 264C120.986 264 120.312 264.672 120.312 265.5C120.312 266.328 120.986 267 121.816 267Z" fill="#999999"/>
<path d="M145.879 267C146.709 267 147.383 266.328 147.383 265.5C147.383 264.672 146.709 264 145.879 264C145.048 264 144.375 264.672 144.375 265.5C144.375 266.328 145.048 267 145.879 267Z" fill="#999999"/>
<path d="M169.941 267C170.772 267 171.445 266.328 171.445 265.5C171.445 264.672 170.772 264 169.941 264C169.111 264 168.438 264.672 168.438 265.5C168.438 266.328 169.111 267 169.941 267Z" fill="#999999"/>
<path d="M194.004 267C194.834 267 195.508 266.328 195.508 265.5C195.508 264.672 194.834 264 194.004 264C193.173 264 192.5 264.672 192.5 265.5C192.5 266.328 193.173 267 194.004 267Z" fill="#999999"/>
<path d="M218.066 267C218.897 267 219.57 266.328 219.57 265.5C219.57 264.672 218.897 264 218.066 264C217.236 264 216.562 264.672 216.562 265.5C216.562 266.328 217.236 267 218.066 267Z" fill="#999999"/>
<path d="M1.50391 267C2.33449 267 3.00781 266.328 3.00781 265.5C3.00781 264.672 2.33449 264 1.50391 264C0.673322 264 0 264.672 0 265.5C0 266.328 0.673322 267 1.50391 267Z" fill="#999999"/>
<path d="M25.5664 291C26.397 291 27.0703 290.328 27.0703 289.5C27.0703 288.672 26.397 288 25.5664 288C24.7358 288 24.0625 288.672 24.0625 289.5C24.0625 290.328 24.7358 291 25.5664 291Z" fill="#999999"/>
<path d="M49.6289 291C50.4595 291 51.1328 290.328 51.1328 289.5C51.1328 288.672 50.4595 288 49.6289 288C48.7983 288 48.125 288.672 48.125 289.5C48.125 290.328 48.7983 291 49.6289 291Z" fill="#999999"/>
<path d="M73.6914 291C74.522 291 75.1953 290.328 75.1953 289.5C75.1953 288.672 74.522 288 73.6914 288C72.8608 288 72.1875 288.672 72.1875 289.5C72.1875 290.328 72.8608 291 73.6914 291Z" fill="#999999"/>
<path d="M97.7539 291C98.5845 291 99.2578 290.328 99.2578 289.5C99.2578 288.672 98.5845 288 97.7539 288C96.9233 288 96.25 288.672 96.25 289.5C96.25 290.328 96.9233 291 97.7539 291Z" fill="#999999"/>
<path d="M121.816 291C122.647 291 123.32 290.328 123.32 289.5C123.32 288.672 122.647 288 121.816 288C120.986 288 120.312 288.672 120.312 289.5C120.312 290.328 120.986 291 121.816 291Z" fill="#999999"/>
<path d="M145.879 291C146.709 291 147.383 290.328 147.383 289.5C147.383 288.672 146.709 288 145.879 288C145.048 288 144.375 288.672 144.375 289.5C144.375 290.328 145.048 291 145.879 291Z" fill="#999999"/>
<path d="M169.941 291C170.772 291 171.445 290.328 171.445 289.5C171.445 288.672 170.772 288 169.941 288C169.111 288 168.438 288.672 168.438 289.5C168.438 290.328 169.111 291 169.941 291Z" fill="#999999"/>
<path d="M194.004 291C194.834 291 195.508 290.328 195.508 289.5C195.508 288.672 194.834 288 194.004 288C193.173 288 192.5 288.672 192.5 289.5C192.5 290.328 193.173 291 194.004 291Z" fill="#999999"/>
<path d="M218.066 291C218.897 291 219.57 290.328 219.57 289.5C219.57 288.672 218.897 288 218.066 288C217.236 288 216.562 288.672 216.562 289.5C216.562 290.328 217.236 291 218.066 291Z" fill="#999999"/>
<path d="M1.50391 291C2.33449 291 3.00781 290.328 3.00781 289.5C3.00781 288.672 2.33449 288 1.50391 288C0.673322 288 0 288.672 0 289.5C0 290.328 0.673322 291 1.50391 291Z" fill="#999999"/>
<path d="M25.5664 315C26.397 315 27.0703 314.328 27.0703 313.5C27.0703 312.672 26.397 312 25.5664 312C24.7358 312 24.0625 312.672 24.0625 313.5C24.0625 314.328 24.7358 315 25.5664 315Z" fill="#999999"/>
<path d="M49.6289 315C50.4595 315 51.1328 314.328 51.1328 313.5C51.1328 312.672 50.4595 312 49.6289 312C48.7983 312 48.125 312.672 48.125 313.5C48.125 314.328 48.7983 315 49.6289 315Z" fill="#999999"/>
<path d="M73.6914 315C74.522 315 75.1953 314.328 75.1953 313.5C75.1953 312.672 74.522 312 73.6914 312C72.8608 312 72.1875 312.672 72.1875 313.5C72.1875 314.328 72.8608 315 73.6914 315Z" fill="#999999"/>
<path d="M97.7539 315C98.5845 315 99.2578 314.328 99.2578 313.5C99.2578 312.672 98.5845 312 97.7539 312C96.9233 312 96.25 312.672 96.25 313.5C96.25 314.328 96.9233 315 97.7539 315Z" fill="#999999"/>
<path d="M121.816 315C122.647 315 123.32 314.328 123.32 313.5C123.32 312.672 122.647 312 121.816 312C120.986 312 120.312 312.672 120.312 313.5C120.312 314.328 120.986 315 121.816 315Z" fill="#999999"/>
<path d="M145.879 315C146.709 315 147.383 314.328 147.383 313.5C147.383 312.672 146.709 312 145.879 312C145.048 312 144.375 312.672 144.375 313.5C144.375 314.328 145.048 315 145.879 315Z" fill="#999999"/>
<path d="M169.941 315C170.772 315 171.445 314.328 171.445 313.5C171.445 312.672 170.772 312 169.941 312C169.111 312 168.438 312.672 168.438 313.5C168.438 314.328 169.111 315 169.941 315Z" fill="#999999"/>
<path d="M194.004 315C194.834 315 195.508 314.328 195.508 313.5C195.508 312.672 194.834 312 194.004 312C193.173 312 192.5 312.672 192.5 313.5C192.5 314.328 193.173 315 194.004 315Z" fill="#999999"/>
<path d="M218.066 315C218.897 315 219.57 314.328 219.57 313.5C219.57 312.672 218.897 312 218.066 312C217.236 312 216.562 312.672 216.562 313.5C216.562 314.328 217.236 315 218.066 315Z" fill="#999999"/>
<path d="M1.50391 315C2.33449 315 3.00781 314.328 3.00781 313.5C3.00781 312.672 2.33449 312 1.50391 312C0.673322 312 0 312.672 0 313.5C0 314.328 0.673322 315 1.50391 315Z" fill="#999999"/>
</svg>
