<svg width="44" height="44" viewBox="0 0 44 44" fill="none" xmlns="http://www.w3.org/2000/svg">
<path d="M20.2118 0.0734675C9.56335 0.918074 0.964268 9.44458 0.0802495 20.1027C-1.00468 32.8925 8.92043 43.6311 21.3771 43.993V38.9656C21.3771 35.8687 19.6894 33.0131 16.957 31.5652C13.3003 29.6347 10.8492 25.6128 11.2108 21.1082C11.6127 15.7992 15.9524 11.536 21.2967 11.174C27.5652 10.7718 32.8291 15.759 32.8291 21.9528C32.8291 26.0954 30.4985 29.6749 27.083 31.525C24.3104 33.0131 22.6629 35.9492 22.6629 39.1265V43.993C34.5168 43.6713 44.0401 33.9382 44.0401 21.993C43.9999 9.2837 33.1506 -0.972236 20.2118 0.0734675Z" fill="url(#paint0_linear_359_6551)"/>
<defs>
<linearGradient id="paint0_linear_359_6551" x1="-0.000110826" y1="21.9983" x2="43.986" y2="21.9983" gradientUnits="userSpaceOnUse">
<stop stop-color="#4F5955"/>
<stop offset="0.500249" stop-color="#929A97"/>
<stop offset="1" stop-color="#4F5955"/>
</linearGradient>
</defs>
</svg>
